# xmcd
#
# Track frame offsets: 
#        150
#        13293
#        28052
#        41311
#        58718
#
# Disc length: 959 seconds
#
# Revision: 0
# Processed by: cddbd v1.5.2PL0 Copyright (c) Steve Scherf et al.
# Submitted via: ExactAudioCopy v0.99pb5
#
DISCID=3a03bd05
DTITLE=Run Boy Run - Run Boy Run
DYEAR=2011
DGENRE=Bluegrass
TTITLE0=Waterbound
TTITLE1=Lazy John
TTITLE2=Train on the Island
TTITLE3=Lady Margaret
TTITLE4=Liza Jane
EXTD=
EXTT0=
EXTT1=
EXTT2=
EXTT3=
EXTT4=
PLAYORDER=
